<svg id="Livello_1" data-name="Livello 1" xmlns="http://www.w3.org/2000/svg" viewBox="0 0 562.89 21.76"><defs><style>.cls-1{fill:#fff;}.cls-2{fill:none;stroke:#fff;stroke-width:2px;}</style></defs><title>logo-footer-desktopNoline</title><path id="Path_600" data-name="Path 600" class="cls-1" d="M804.63,31.62V16.53h7.77V18.2h-5.85v4.85H812v1.67h-5.44V30h6v1.67Z" transform="translate(-618.3 -13.29)"/><path id="Path_601" data-name="Path 601" class="cls-1" d="M817,24.68v6.94H815V16.53h5.2c2.68,0,3.62,1.88,3.62,3.76a3.25,3.25,0,0,1-2.76,3.45v0c1.74.27,2.36.86,2.47,3.89a22.85,22.85,0,0,0,.52,3.95h-2c-.54-1-.41-3-.58-5a2,2,0,0,0-2-1.94l-.24,0ZM817,23h2.88c1.38,0,2-1.19,2-2.51a2,2,0,0,0-1.78-2.28l-.25,0H817Z" transform="translate(-618.3 -13.29)"/><path id="Path_602" data-name="Path 602" class="cls-1" d="M828.52,31.62h-1.8V16.53h3.11l3.81,12.67h0l3.84-12.67h3.18V31.62h-1.92V18.2h0l-4.23,13.42H832.7L828.56,18.2h0Z" transform="translate(-618.3 -13.29)"/><path id="Path_603" data-name="Path 603" class="cls-1" d="M844.11,31.62V16.53h7.78V18.2H846v4.85h5.44v1.67H846V30h6v1.67Z" transform="translate(-618.3 -13.29)"/><path id="Path_604" data-name="Path 604" class="cls-1" d="M865,16.53V31.62h-2.63l-6-13.08h0V31.62h-1.72V16.53h2.72l5.88,12.92h0V16.53Z" transform="translate(-618.3 -13.29)"/><path id="Path_605" data-name="Path 605" class="cls-1" d="M868.5,31.62V16.53h7.78V18.2h-5.86v4.85h5.44v1.67h-5.44V30h6v1.67Z" transform="translate(-618.3 -13.29)"/><path id="Path_606" data-name="Path 606" class="cls-1" d="M886.18,20.56c0-1.77-.73-2.73-2.67-2.73-.61,0-2.78.1-2.78,3.26v5.1c0,3.3,1,4.14,2.78,4.14a4.85,4.85,0,0,0,2.7-.67V25.14h-2.78V23.47h4.7v7.34a9.32,9.32,0,0,1-4.62,1.13c-3.2,0-4.75-1.66-4.75-5.84v-5c0-3,1.55-4.93,4.75-4.93s4.81,1.19,4.68,4.34Z" transform="translate(-618.3 -13.29)"/><path id="Path_607" data-name="Path 607" class="cls-1" d="M893.9,31.62H892V16.53h1.93Z" transform="translate(-618.3 -13.29)"/><path id="Path_608" data-name="Path 608" class="cls-1" d="M897.53,31.62V16.53h1.93V30H905v1.67Z" transform="translate(-618.3 -13.29)"/><path id="Path_609" data-name="Path 609" class="cls-1" d="M906.85,16.53h4.64a4,4,0,0,1,4.06,2.3,15.37,15.37,0,0,1,.67,4.77c0,3.22-.29,5.08-.92,6.08-.82,1.3-2.34,1.94-5,1.94h-3.47ZM908.78,30h1.82c2.67,0,3.66-1,3.66-4.52V22.38c0-3.05-1-4.18-3-4.18h-2.53Z" transform="translate(-618.3 -13.29)"/><path id="Path_610" data-name="Path 610" class="cls-1" d="M919.52,26.1v-5c0-3,1.55-4.93,4.75-4.93S929,18.14,929,21.15v5c0,4.18-1.55,5.84-4.74,5.84S919.52,30.29,919.52,26.1Zm7.53.09v-5.1c0-3.16-2.18-3.26-2.78-3.26s-2.78.1-2.78,3.26v5.1c0,3.3,1,4.14,2.78,4.14S927.05,29.49,927.05,26.19Z" transform="translate(-618.3 -13.29)"/><path id="Path_611" data-name="Path 611" class="cls-1" d="M945.06,18.45,937.58,30h7.65v1.67H935.8V29.45l7.32-11.2v0h-7.07V16.54h9Z" transform="translate(-618.3 -13.29)"/><path id="Path_612" data-name="Path 612" class="cls-1" d="M947.44,31.62V16.53h7.78V18.2h-5.85v4.85h5.43v1.67h-5.43V30h6v1.67Z" transform="translate(-618.3 -13.29)"/><path id="Path_613" data-name="Path 613" class="cls-1" d="M965.13,20.56c0-1.77-.73-2.73-2.68-2.73-.6,0-2.78.1-2.78,3.26v5.1c0,3.3,1,4.14,2.78,4.14a4.81,4.81,0,0,0,2.7-.67V25.14h-2.78V23.47h4.7v7.34a9.32,9.32,0,0,1-4.62,1.13c-3.2,0-4.75-1.66-4.75-5.84v-5c0-3,1.55-4.93,4.75-4.93s4.81,1.19,4.68,4.34Z" transform="translate(-618.3 -13.29)"/><path id="Path_614" data-name="Path 614" class="cls-1" d="M981.12,16.53V31.62h-2.64l-6-13.08h0V31.62h-1.71V16.53h2.72l5.87,12.92h0V16.53Z" transform="translate(-618.3 -13.29)"/><path id="Path_615" data-name="Path 615" class="cls-1" d="M988,16.53h2.45l4.91,15.09h-2.15L992.13,28H986.3l-1.13,3.59h-1.94Zm1.18,1.78h-.05l-2.36,8h4.83Z" transform="translate(-618.3 -13.29)"/><line id="Line_86" data-name="Line 86" class="cls-2" x1="10.88" y1="1.38" x2="10.88" y2="20.38"/><line id="Line_87" data-name="Line 87" class="cls-2" x1="1" y1="0.7" x2="20.76" y2="21.07"/><line id="Line_88" data-name="Line 88" class="cls-2" x1="21.07" y1="1" x2="0.7" y2="20.76"/><line id="Line_89" data-name="Line 89" class="cls-2" x1="43.76" y1="1.38" x2="43.76" y2="20.38"/><line id="Line_90" data-name="Line 90" class="cls-2" x1="33.88" y1="0.7" x2="53.64" y2="21.07"/><line id="Line_91" data-name="Line 91" class="cls-2" x1="53.94" y1="1" x2="33.57" y2="20.76"/><line id="Line_92" data-name="Line 92" class="cls-2" x1="76.63" y1="1.38" x2="76.63" y2="20.38"/><line id="Line_93" data-name="Line 93" class="cls-2" x1="66.75" y1="0.7" x2="86.51" y2="21.07"/><line id="Line_94" data-name="Line 94" class="cls-2" x1="86.82" y1="1" x2="66.45" y2="20.76"/><line id="Line_95" data-name="Line 95" class="cls-2" x1="109.51" y1="1.38" x2="109.51" y2="20.38"/><line id="Line_96" data-name="Line 96" class="cls-2" x1="99.63" y1="0.7" x2="119.39" y2="21.07"/><line id="Line_97" data-name="Line 97" class="cls-2" x1="119.69" y1="1" x2="99.32" y2="20.76"/><line id="Line_98" data-name="Line 98" class="cls-2" x1="142.38" y1="1.38" x2="142.38" y2="20.38"/><line id="Line_99" data-name="Line 99" class="cls-2" x1="132.5" y1="0.7" x2="152.26" y2="21.07"/><line id="Line_100" data-name="Line 100" class="cls-2" x1="152.57" y1="1" x2="132.2" y2="20.76"/><line id="Line_101" data-name="Line 101" class="cls-2" x1="420.51" y1="1.38" x2="420.51" y2="20.38"/><line id="Line_102" data-name="Line 102" class="cls-2" x1="410.63" y1="0.7" x2="430.39" y2="21.07"/><line id="Line_103" data-name="Line 103" class="cls-2" x1="430.69" y1="1" x2="410.32" y2="20.76"/><line id="Line_104" data-name="Line 104" class="cls-2" x1="453.38" y1="1.38" x2="453.38" y2="20.38"/><line id="Line_105" data-name="Line 105" class="cls-2" x1="443.5" y1="0.7" x2="463.26" y2="21.07"/><line id="Line_106" data-name="Line 106" class="cls-2" x1="463.57" y1="1" x2="443.2" y2="20.76"/><line id="Line_107" data-name="Line 107" class="cls-2" x1="486.26" y1="1.38" x2="486.26" y2="20.38"/><line id="Line_108" data-name="Line 108" class="cls-2" x1="476.38" y1="0.7" x2="496.14" y2="21.07"/><line id="Line_109" data-name="Line 109" class="cls-2" x1="496.44" y1="1" x2="476.07" y2="20.76"/><line id="Line_110" data-name="Line 110" class="cls-2" x1="519.13" y1="1.38" x2="519.13" y2="20.38"/><line id="Line_111" data-name="Line 111" class="cls-2" x1="509.25" y1="0.7" x2="529.01" y2="21.07"/><line id="Line_112" data-name="Line 112" class="cls-2" x1="529.32" y1="1" x2="508.95" y2="20.76"/><line id="Line_113" data-name="Line 113" class="cls-2" x1="552.01" y1="1.38" x2="552.01" y2="20.38"/><line id="Line_114" data-name="Line 114" class="cls-2" x1="542.13" y1="0.7" x2="561.89" y2="21.07"/><line id="Line_115" data-name="Line 115" class="cls-2" x1="562.19" y1="1" x2="541.82" y2="20.76"/></svg>